<?xml version="1.0" standalone="no"?>
<!DOCTYPE svg PUBLIC "-//W3C//DTD SVG 20010904//EN"
 "http://www.w3.org/TR/2001/REC-SVG-20010904/DTD/svg10.dtd">
<svg version="1.0" xmlns="http://www.w3.org/2000/svg"
 width="1024.000000pt" height="1024.000000pt" viewBox="0 0 1024.000000 1024.000000"
 preserveAspectRatio="xMidYMid meet">
<metadata>
Created by potrace 1.14, written by Peter Selinger 2001-2017
</metadata>
<g transform="translate(0.000000,1024.000000) scale(0.100000,-0.100000)"
fill="#000000" stroke="none">
<path d="M4660 10233 c-226 -40 -466 -149 -596 -270 -38 -36 -93 -103 -122
-148 -18 -29 -103 -199 -103 -205 1 -3 -8 -32 -18 -65 -35 -108 -43 -148 -50
-258 l-6 -108 -100 -38 c-55 -21 -152 -65 -215 -98 l-115 -60 -280 282 -280
281 -40 -17 c-48 -20 -197 -83 -508 -213 -126 -53 -242 -103 -258 -111 -16 -9
-31 -15 -34 -15 -3 0 -22 -7 -43 -16 -20 -8 -71 -29 -112 -46 -41 -17 -79 -35
-85 -40 -7 -6 -10 -410 -11 -1171 -1 -1038 -2 -1168 -17 -1222 -15 -56 -49
-211 -62 -280 -16 -89 -45 -277 -51 -325 -3 -30 -7 -66 -10 -80 -2 -14 -7 -59
-10 -100 -3 -41 -7 -91 -9 -110 -15 -138 -19 -651 -19 -2600 0 -1978 3 -2370
18 -2460 3 -14 7 -42 10 -62 26 -170 86 -328 167 -436 80 -105 208 -182 364
-218 77 -18 192 -19 3040 -19 1628 0 2980 3 3005 6 225 33 406 155 491 329 39
81 73 181 94 275 11 47 26 169 32 260 9 140 9 4517 0 4725 -4 85 -9 175 -12
200 -2 25 -7 72 -10 105 -9 92 -14 147 -20 185 -2 19 -7 55 -10 80 -3 25 -8
56 -10 70 -3 14 -7 41 -10 60 -12 74 -17 99 -41 218 -14 68 -33 151 -43 185
-15 57 -16 162 -16 1224 l0 1161 -55 23 c-30 12 -75 31 -100 42 -82 36 -104
45 -230 97 -69 29 -138 58 -155 65 -16 7 -86 37 -155 65 -122 51 -194 82 -235
100 -11 5 -51 22 -89 38 l-70 28 -280 -281 -281 -281 -130 66 c-71 37 -168 80
-215 97 l-85 31 -6 103 c-18 302 -172 611 -374 749 -75 51 -236 131 -295 145
-3 1 -12 5 -20 8 -20 8 -116 34 -160 43 -38 8 -919 14 -960 7z m735 -517 c66
-4 140 -9 165 -12 119 -14 228 -103 297 -245 43 -87 79 -197 68 -207 -4 -4
-368 -7 -810 -7 l-804 0 5 29 c25 146 122 309 220 375 70 46 130 59 309 66 88
4 161 8 163 9 4 5 249 -1 387 -8z"/>
</g>
</svg>
