<svg xmlns="http://www.w3.org/2000/svg" width="143" height="125" viewBox="0 0 143 125">
    <g fill="#231F20" fill-rule="nonzero">
        <path d="M10.9 61.985c2.258 0 4.982-1.141 7.706-.908.441-1.141.441-2.257.908-3.398.441-1.35 1.142-2.725 1.583-4.073.233-.441.233-1.142.44-1.583.234-.44.234-.674.442-1.142 0-.233.233-.44.233-.674v-.675c0-.233.234-.44.234-.674.233-.441.233-1.142.44-1.583.234-.907.675-1.582.909-2.49.233-.908.44-1.583.674-2.491.234-.908.675-1.35.908-2.257.441-.908.441-2.05.908-2.958.441-1.141.675-2.05.908-3.165.441-1.816 1.35-3.632 2.257-5.448.442-1.142 1.142-2.258 1.35-3.633 0-.44.233-.908.233-1.349.234-.44.441-1.349.908-1.349.675-.233 1.816 1.35 2.257 1.816.234.234.441.675.675.908.233.234.44.675.44.908v1.142c-.233.674-.44 1.582-.674 2.257-.233.441-.233.675-.44 1.142-.442 1.349-.909 2.49-1.35 3.632-.674 1.816-1.349 3.399-2.05 5.215-.44 1.141-.674 2.49-1.14 3.632-.442 1.35-.91 2.724-1.35 4.307-.234 1.142-.675 2.05-1.142 3.165-.467 1.116-.674 2.05-1.141 3.165-.441 1.817-1.35 3.633-1.816 5.449 0 .44-.234.674-.234 1.141 0 .234-.233.675-.233.908 1.141.234 2.49.234 3.632.234.44-.908.675-1.583 1.141-2.491.675-1.142 1.35-2.724 2.49-4.073.234-.234.442-.234.676-.441.908-1.142 1.816-2.05 3.398-2.724.234-.234 1.142-.442 1.35-.442.908 0 1.349 1.142 2.05 1.583.44.233.907.44 1.348.908.441.233.908.674 1.35 1.141.233.442.674 1.142.674 1.583 0 .674-.234 1.35-.441 2.257-.234 1.35-.234 2.257-.908 3.166-.441.44-1.142.674-1.583 1.141-.233.234-.44.441-.908.441-.44.234-.674.441-1.141.441-.442.234-.908.234-1.35.442-.907.233-1.816.674-2.724.907-.233 0-1.582.234-1.582.234-.441 2.05 0 4.54 1.142 5.89.674.233 1.816-.234 2.49-.675.908-.441 1.816-1.35 2.49-2.05 1.817-1.582 3.166-3.399 4.54-5.448.234-.441.442-1.142.909-1.583.233-.233.233-.233.233-.44.234-.909.675-1.583 1.142-2.258.441-.674.908-1.816.908-2.49.234-1.142-.441-2.491 0-3.633.234-.441.44-.675.675-1.142.233-.233.233-.44.233-.674 0-.675.908-.675 1.35-.441.44.233.674 1.141 1.141 1.349l1.142 1.141c.233.675 0 1.35.44 1.817 1.142-.234 1.817-.908 2.725-.675.44 0 .908.441 1.582.675.441.233 1.142.233 1.583.674.233.233.441.675.674 1.142.234.674.441 1.582.441 2.49 0 .908-.674 1.35-.908 1.816-2.257 2.05-4.073 4.307-4.981 7.498 0 .234-.233.908-.233 1.142.233.234.907-.441 1.141-.674l.44-.442c.442-.44.909-.908 1.583-1.349.908-.908 2.05-1.816 2.725-2.957-.675-1.583.233-2.958 1.582-1.816.908-.908 1.35-2.05 2.257-3.166.234-.44.675-.674.908-1.141.234-.467.441-.908.675-1.35.233-.44.675-.907.908-1.582.234-.441.674-.908.908-1.582.234-.234.234-.441.441-.908 0-.234.234-.441.234-.675v-.908-.908-.908c0-.233.44-.233.674-.233v-.441l.234-.234c.233-.233.441-.233.675-.233.44 0 .908.233 1.349.675.233.233.233.674.233.908.675.674 1.583 1.582 1.583 2.724 0 .44-.234.908-.441 1.141-.234 1.583 0 3.633.44 5.215.442 1.583.676 3.632.676 5.448.44-.233.674-.674.907-1.141.442-.908 1.142-1.816 1.583-2.724.441-1.142.908-2.05 1.582-2.958.234-.441.675-.908 1.142-1.349.675-1.142 1.349-2.05 2.05-2.957.44-.442 1.141-1.142 1.816-1.583.233-.234.674-.441.908-.674.233-.234.44-.675.908-.675.233-.233.674-.233.908-.233.233 0 .674-.234.908-.234.674 0 1.349-.233 1.816.234.44.233 1.141.674 1.582 1.141.234.441.675 1.142 1.142 1.35h.44c.234 0 .676-.234.909 0 .233.233.441.44.441.907 0 .675 0 1.35-.233 1.816 0 .234-.234.441-.234.675 0 .233-.233.44-.44.674-.234.234-.442.442-.442.908-.233.441-.233.675-.441 1.142-.233.441-.441.674-.675 1.142-.233.674-.44 1.141-1.582.674-.234-.233-.675-.441-.908-.674-.233-.234-.441-.234-.675-.675-.674.441-.674.233-.674-.233 0-.442-.234-.675-.234-.908 0-.441.234-.675.234-.908 0-.234.233-.441 0-.675-.234-.233-.675 0-.908 0-.675.234-.908.908-1.35 1.35-.674.674-1.348 1.349-1.815 2.256-.234.442-.441.909-.675 1.35-.233.44-.674.907-.674 1.349-.442 1.582-.675 2.724.44 3.865.234.234.442.234.675.234.234 0 .234.233.441.233.442.234.908.441 1.35.441 1.348-.233 3.398-1.141 4.54-1.816.44-.233.908-.908 1.582-1.141.441-.442 1.142-.908 1.35-1.35 0-.233.233-.44.233-.674.44-.908.908-1.816 1.141-2.958.234-.674.441-1.348.675-1.816.233-.233.233-.674.233-.908.234-.674.675-1.141.908-1.816.442-.674.675-1.582 1.142-2.257.233-.441.441-.908.674-1.35.441-.907.675-1.582.908-2.49.234-.441.234-.908.441-1.142.234-.44.441-.674.441-1.141 0-.441.234-.675.234-1.142.234-.44.441-.674.441-1.142.441-.907.908-2.049 1.35-2.957.233-.675.44-1.349.907-2.05.441-.907.908-2.05 1.349-3.165.441-.674.675-1.141.908-2.05.233-.674.675-1.14 1.142-1.816.44-.674.44-1.582.908-2.49.44-.675.674-1.35 1.141-2.258.234-.674.441-1.349.908-2.257.234-.44.675-1.582 1.142-1.816 1.142-.44 2.257 1.35 2.724 2.258.233.233.441.674.441 1.141 0 .674 0 1.35-.233 2.05-.441 2.05-1.35 3.632-2.05 5.214-1.816 3.166-3.632 6.357-5.448 9.522-.234.441-.674.908-.908 1.35-.234.44-.234.907-.441 1.14-.234.442-.441.675-.675 1.142-.233.442-.233.675-.44 1.142 0 .234-.234.675-.234.908-.234.234-.234.674-.441.908.674-.234 1.141-.441 1.582-.908.234-.233.441-.441.675-.441.44-.233 1.141-.441 1.582-.675.441-.233 1.142-.233 1.816-.233.675.233 1.35.675 1.817 1.142.44.233.907.674 1.141.908.234.44.675.908.908 1.348.233 1.142-.233 1.817-.441 2.725v1.349c0 .44-.233.674-.441 1.141-.441.675-.908 1.35-1.142 2.05-.233.441-.233.908-.441 1.142-.233.44-.674.908-.908 1.349-.233.44-.44.908-.44 1.349-.234.44-.442 1.141-.676 1.582-.233.441-.674 1.583 0 1.816.442.234 1.583-.44 2.05-.907.441-.442.908-.675 1.35-1.142.44-.441.907-.675 1.348-1.142.441-.441.908-.908 1.35-1.582.233-.908.233-2.258.44-3.166.208-.907.675-1.816 1.142-2.724 1.142-2.257 2.49-3.865 4.54-5.448.441-.441.675-.674 1.142-.908 1.142-.44 2.724 0 3.399.675.44.44 1.141.908 1.582 1.349.675.674 1.816 1.141 2.05 2.257.233.441 0 .908 0 1.582-.234.675-.234 1.142-.442 1.817-.233.674-.44 1.349-.674 1.816l-.908.908c-.441.44-1.142.908-1.816 1.582-.675.675-1.35 1.142-2.257 1.816-.442.234-1.142 1.142-2.05.908-.675-.233-1.142-.908-1.816-1.141-.441 1.349.44 2.724 1.141 3.865.234.234.442.442.675.442.908.233 1.583-.234 2.257-.675 1.142-.674 1.583-1.582 2.491-2.257.441-.441 1.142-.675 1.349-1.142.233-.233.675-.674.908-1.142.441-.674 1.142-1.582 1.816-2.049.234-.233.675-.441 1.142-.908.233-.233.674-.675.908-1.142.908-1.141 1.141-1.816 1.349-3.398.233-.908.233-2.05.233-2.958.234-.908.234-1.816.441-2.724.234-.675.234-1.142.234-1.816.44-2.724 1.582-5.215 2.49-7.939.234-.675.234-1.35.442-2.05.233-.674.674-1.141.674-1.816.233-.441.233-1.141.441-1.582.234-.441.675-.908.908-1.583.233-.44.441-.908.675-1.582.908-2.05 1.816-4.074 2.957-6.123.441-.909 1.142-2.05 1.583-2.958.44-.674.44-1.816 1.349-2.05.674-.233 2.05.441 2.724.908.908.675.233 2.49 0 3.633-.234.908-.441 1.582-.441 2.49 0 .441 0 .675-.234 1.142-.233.908-.44 1.816-.674 2.724-.234.908-.234 2.05-.441 2.958 0 .44-.441.908-.441 1.582 0 .675 0 1.35-.234 1.816a12.033 12.033 0 0 0-.908 2.491c-.233.908-.441 1.583-.908 2.49-.44.675-.674 1.35-.908 2.05-.233.675-.674 1.35-.908 2.258-.44 1.141-.908 2.257-1.582 3.398-.908 1.816-2.05 3.633-3.165 5.449-.234.44-.441.674-.675 1.141-.233.441-.674.675-.674 1.142-.234.908-.234 2.49 0 3.866.233.907.233 1.816.233 2.724 0 .44 0 .908.233 1.141 0 .234.234.675.442.908.44.234 1.141 0 1.582 0 .44 0 .908-.233 1.349-.441.441-.233.675-.441 1.142-.675.44-.233.674-.44 1.141-.674.908-.233 1.583-1.142 2.258-1.816.44-.441 1.141-1.583 1.816-1.816.908-.234 1.349.907.908 1.816-.234.674-.675 1.141-.908 1.816-.441.674-.908 1.349-1.35 2.05-.674.674-1.348 1.141-2.256 1.816-.234.233-.234.44-.442.44-.233.234-.44.234-.674.442-.441.233-.908.441-1.35.908-.44.233-.907.441-1.582.675-.674.233-1.582.233-2.257.233-.441 0-1.142 0-1.582-.233-.442-.234-.908-.675-1.35-.909-.674-.233-1.141-1.141-1.141-1.816-.234-.907-.441-1.816-.441-2.724V62.3c-2.491 1.816-5.682 5.448-8.38 7.264-.675.441-2.05.441-2.958.234-.674-.234-1.349-.675-2.05-.909-.44-.233-.907-.44-1.348-.907-.442-.441-.908-1.142-1.35-1.816-.233-.234-.44-.675-.907-.908l-.675.44-.675.675c-.233.234-.44.441-.674.441-.441.442-.908.675-1.35.908-.907.675-2.256 1.142-3.398 1.142h-1.141c-.675 0-1.35-.233-2.05-.675-.441-.233-1.141-.44-1.583-1.141-.233-.234-.233-.675-.233-1.142 0-.467.233-1.349.441-1.816.234-.675.234-1.35.441-1.816.441-.908.908-2.05 1.35-2.958.233-.674.674-1.349.908-2.05.233-.7.233-1.349.44-2.049 0-.441.234-1.349-.233-1.582-.675-.675-2.257-.234-2.957.233-.442.233-.908.441-1.142.674-.233.234-.675.234-.908.675-.233.233-.233.441-.441.675l-.908.908c-.233.233-.233.674-.441.907 0 .234-.234.442-.234.908-.233.442-.44 1.142-.674 1.583-.234.674-.675 1.349-.908 2.49-.441 1.35-1.142 2.958-1.35 4.54-.233.676-.233 1.583-.44 2.258 0 .234-.441.908-.675.908-.233 0-.908-.233-1.349-.441-.908-.441-1.816-.441-2.05-1.582-.674.233-1.349.674-1.816.908-.233.233-.44.44-.674.44-.234.234-.675.234-.908.234-.233 0-.233 0-.441.233-.234.234-.441.234-.908.234h-1.142c-.674 0-1.582-.234-2.257-.234-.441 0-.908 0-1.142-.233a3.42 3.42 0 0 1-.908-.674c-.674-.442-1.349-1.142-1.816-1.817-.441-.674-.674-1.582-.908-2.49-.674.44-.908.907-1.349 1.582-.44.441-.675 1.142-1.141 1.816-.908 1.142-1.583 2.257-2.725 3.166-.907.674-2.724 1.141-4.073 1.141-2.724-.44-4.306-2.49-5.682-4.54-.908.908-2.05 2.05-3.398 3.165-.908.675-1.142 1.142-2.258 1.583-.674.233-1.349.44-2.05.44-.44 0-.674 0-1.141-.233-.233 0-.675 0-.908-.233-.233-.233-.441-.441-.675-.908-.233-.675-.44-1.583-.674-2.257v-1.35c0-.44 0-1.141.234-1.582.233-.44.44-1.142.44-1.583.234-.674.442-1.348.908-2.049.234-.441 1.142-1.583.908-1.816 0-.908-1.582-.675-2.05-1.142-.674.675-1.141 1.583-1.582 2.257-.234.442-.441.675-.675 1.142-.233.441-.44.908-.674 1.35-.234.44-.675.674-.908 1.14-.234.442-.441.909-.675 1.35-.674.908-.908 1.816-1.582 2.49a15.403 15.403 0 0 1-1.817 2.258c-.674.674-1.582 1.582-2.49 2.05-.441.233-1.142.233-1.582.233-.675 0-1.35.233-1.817.233-.674.234-1.349.234-2.05.234-.44 0-.907-.441-1.582-.441-.44-.234-.674-.234-1.141-.442-.442-.233-.675-.674-.908-.908l-.675-.674c-.908-1.583-1.141-3.866-1.141-6.123-1.35-.233-2.958-.233-4.307-.441-.234 0-1.142 3.165-1.142 3.632-.44 1.35-.674 2.491-.908 3.866 0 .441-.233 1.142-.233 1.583 0 .233-.234.44-.234.674-.675 2.05-1.349 3.866-2.05 5.89 0 .44-.233.674-.44.907-.234.442-.675.234-1.142.442-.234 0-.234.233-.441.233-.208 0-.441-.233-.441-.441-.234-.441 0-1.142 0-1.583 0-.674-.234-1.582-.234-2.49 0-.675.234-1.35.234-1.816 0-.908.233-1.817.44-2.725.234-1.349.234-2.957.675-4.306.234-1.35.675-2.725.908-3.866-2.724.233-5.448.908-7.705 1.816-.234.233-.234.675-.441 1.142-.234.44-.441 1.141-.675 1.582-.234 1.583-.674 3.165-.908 4.774 0 .908-.234 1.582-.441 2.49-.441 2.05-.908 4.073-1.35 6.357 0 .233 0 .441-.233.674-.233.234-.441.234-.675.442-.233.233-.233.907-.674.907 1.142-.44.233-.907.233-.907-.233-.234-.233-.675-.233-.908a3.086 3.086 0 0 1 0-2.05c0-1.142.233-2.05.441-3.165 0-.675.233-1.142.233-1.816.442-2.725.442-5.449 1.142-7.94-.674.234-1.816.675-2.724.442-.441-.234-1.35-.908-1.583-1.583a4.162 4.162 0 0 1-.44-1.816c0-.233-.234-.674-.234-.908 0-.233.233-.233.441-.233.441.233.675 0 1.142-.234.44 0 .908-.233 1.349-.233.908-.233 2.05-.674 2.957-1.142.234-.674.234-1.582.441-2.49.442-1.817.675-3.399 1.142-5.215.234-.675.234-1.583.441-2.257v-.675-.674c0-.234.233-.675.233-.908.234-.675.442-1.35.442-1.817.233-1.582.44-3.398.908-5.214.44-1.583 1.141-3.166 1.349-4.774 0-.675 0-1.349.233-2.05 0-.44.441-.674.441-.908v-1.141c.675-2.958 1.816-5.89 2.49-8.847 0-.441.234-.908.234-1.142 0-.44 0-.908.234-1.141.233-.442.44-.908.44-1.142.234-.908.442-1.816.442-2.724.233-.441.233-.908.44-1.35.234-.44 1.142 0 1.35 0 .208 0 .441.234.675.234.44.234.674.234.908.442l.674.674c.442.441.908.908 1.142 1.583.234.441.234.908.234 1.349 0 .44-.442.908-.442 1.35-.44 1.14-.674 2.256-.907 3.398-1.142 2.958-2.05 6.357-3.166 9.522-.233.44-.44 1.141-.44 1.582-.442 1.35-.442 2.958-.909 4.307-.233.675-.441 1.142-.675 2.05-.233.674-.44 1.349-.44 2.05-.675 3.398-1.35 6.59-2.258 9.988.208.957-.7 2.54-.907 4.355zM138.6 30.463c-.908 2.05-1.817 3.866-2.491 6.357-.234.233-.234.674-.234.907 0 .908-2.724 7.498-2.49 8.38.674-.907 2.957-7.705 3.398-8.613v-.233c.908-2.05 1.583-4.307 1.817-6.798zM36.974 55.629c-1.349 1.349-2.49 2.724-3.632 4.073-.233.233-.675.675-.675 1.142 2.725-.441 4.541-2.491 4.307-5.215.234 0 .234 0 0 0zm24.959 12.246c.441.233.908.674 1.141.674.234 0 .908-.674 1.142-.908.674-.674 1.349-1.582 1.349-2.257 0-2.257-.675-4.981-.675-7.265h-.233c-2.05 2.258-2.958 5.215-4.774 7.706.441.441.675 1.142 1.141 1.583.442.025.676.233.909.467zm52.174-9.08c.908-.234 4.54-3.633 4.307-5.89-1.609-.441-3.866 5.007-4.307 5.89zM65.773 1.198c0 1.141.44 2.257.44 3.632.675 0 2.258-.675 2.05.441 0 .675-1.349.441-2.05.675 0 1.349.234 2.724.442 4.073.674 0 2.49-.675 2.724 0 .234.908-3.165.908-3.632.675-.441-2.958-.675-6.798-.675-9.99.441-.233 1.583-.233 2.257-.44.441 0 .908-.234.908.233.26.7-1.764.468-2.464.7zM73.037.965c-.441-.675-1.582-.234-1.816.44-.233.442-.233 1.142 0 1.583.234.674 1.142 1.35 1.583 2.257.908 1.142 1.582 2.49.908 4.307-.675.908-2.49 1.349-3.4 0-.233-.441-.907-3.165.234-3.165.908 0 0 2.957 1.35 2.957.674 0 1.348-.44 1.348-1.349-.233-2.257-2.724-3.165-2.957-5.681 0-.442 0-.908.44-1.35.909-1.582 3.166-1.141 3.166.908 0 .234 0 .908-.441.908-.234 0-.234-.44-.234-.674.053-.467.053-.675-.181-1.141zM79.835 1.198c-.442.44-1.35 0-1.817 0 0 2.49 0 4.98-.233 7.498v.908c0 .44 0 .908-.675.908-.44-.442-.233-1.142-.233-1.583.233-2.49.233-5.215.441-7.706 0 .234-1.349 0-1.582 0-.234 0-.675-.233-.441-.44 0-.234.674-.234.907-.234h1.817c.7-.26 2.049-.26 1.816.649z"/>
        <path d="M85.957 10.72c.234.233.442.674.675.907l.674.675c.442.234.908.234 1.142.441.908.234 1.816.675 2.724.675.441.233 1.142.233 1.583.233 2.05.234 4.073.234 6.123.442 1.815.233 3.632.674 5.448 1.141 2.257.675 4.981 1.582 6.797 3.165.233.234 1.582 1.583.674 2.05-.674.234-.908-.908-1.141-1.141-.675-.675-1.583-.908-2.257-1.35-.908-.44-1.817-.674-2.725-1.141-2.05-.675-4.073-1.142-6.122-1.583-3.4-.44-7.031-.44-9.989-1.349-1.349-.44-2.957-.674-3.632-2.05-.234-.233-.234-.44-.441-.674 0-.234 0-.441-.234-.441h-.44c-.234 0-.234-.234-.442-.234-.675-.44-1.142-1.141-1.142-1.816-.233-1.35.442-3.866.675-5.215.233-1.141.233-2.257.908-2.724.441-.44 2.05-.44 2.49-.234.442.208.909 1.142.909 1.583 0 .675-.234 1.582-.234 2.49a119.66 119.66 0 0 1-.674 3.633c-.648 1.375-.882 2.075-1.349 2.516zm-2.023-4.074c-.234 1.35-.234 3.165.908 3.165 1.141.234 1.141-.674 1.141-1.582.234-1.35.675-2.725.675-4.307 0-.441.233-.908.233-1.35 0-.44-.44-1.14-.908-1.14-.44-.234-1.141-.234-1.349.44-.233.441 0 .908-.233 1.35 0 .44-.234 1.14-.234 1.582 0 .7-.233 1.142-.233 1.842zM63.75 10.72c-.909.674-1.35-.234-1.817-1.142a79.65 79.65 0 0 1-2.05-4.54c0 1.349.234 2.957.441 4.306 0 .442.442 1.583-.44 1.583-.675 0-.675-2.257-.909-2.958-.233-1.815-.233-3.398-.674-5.214v-.908c0-.441.233-.908.674-.441.442.233.675.674.908 1.141.675 1.816 1.35 3.632 2.258 5.448 0-1.141-.234-2.257-.234-3.865 0-.908-.674-3.399.441-3.165.441.233.441.674.441 1.349.26 2.516.96 5.448.96 8.405z"/>
        <path d="M90.056 1.431c.234 0 .234.441.442.675 0 .44 0 .908-.234 1.141-.233 1.35-.44 2.958-.674 4.54 0 .675-.234 1.35-.234 1.817.234.674.908 1.141 1.583 1.141 1.142-.233 1.142-1.816 1.349-3.165.233-1.35.441-2.257.674-3.866 0-.674.234-1.582.675-1.582.44 0 .233 1.141.233 2.05-.233 1.582-.44 2.723-.674 4.072-.234 1.583-.441 2.958-1.816 3.4-1.583.44-3.166-.675-2.958-2.492 0-.908.441-2.05.674-2.957.234-1.142.234-2.05.442-3.165.052-.493.285-1.401.518-1.609zM58.3 11.16c-.907.441-.907-1.349-1.14-2.05-.442-1.815-.442-3.398-.909-5.214 0-.44-.233-.908-.233-1.35 0-.233-.234-.907.233-1.14.441-.441.675.674.675.907 0 .234 0 .675.233.908.234 1.142.441 1.816.441 2.958.026 2.05.934 3.866.7 4.981zM52.178 3.455c.441 1.142.674 2.257.908 3.399.44 0 2.257-1.142 2.724-.234.233.908-1.816.908-2.257 1.142 0 .907.233 1.582.674 2.49.234.675.675 2.05-.233 2.05-.675 0-.908-1.816-1.142-2.49 0-.442 0-.909-.233-1.143-.441-1.816-1.35-4.306-1.35-6.122.675 0 1.817-.675 2.725-.675.44 0 .908 0 .674.675-.233.674-2.049.467-2.49.908zM97.088 9.811c-.442-.233-.908-.44-1.35-.674-.233.441-.44.908-.907 1.582-.234.234-.234.441-.442.675 0 .233-.233.233-.233.233-.675.234-.675-.44-.441-.908.233-.467.441-.908.674-1.349 1.142-2.05 1.816-4.54 2.958-6.59.674-.44.441.675.441 1.35 0 .44 0 .907.233 1.582 0 1.816-.233 3.866-.233 5.215 0 .674 0 1.349-.441 1.582-.934.26-.26-2.023-.26-2.698zm-1.142-1.349c.441.234.674.441 1.142.441.233-.908.233-2.49 0-3.632-.234.908-.675 2.05-1.142 3.191zM101.628 3.688c-.233 2.958-1.35 5.682-1.816 8.38.44.441 2.49.441 2.257 1.35 0 .907-1.35 0-1.583 0-.674-.234-1.582-.234-1.816-.675-.233-.442.234-1.583.441-2.258.442-2.05 1.35-4.98 1.816-6.59.234.027.468-.44.7-.207zM44.24 5.037c.233 1.142.674 2.258.907 3.4l1.35-.442c.233 0 .44-.233.674-.233.44 0 .674.44.233.907-.44.234-.908.441-1.349.441l-.674.234c.233 1.141.908 2.257 1.141 3.399 1.142-.234 2.05-.908 3.166-.675.44.675-.675.908-1.35 1.142-.908.233-2.05.908-2.49 0-.234-.441-.442-1.35-.675-2.05-.675-2.05-1.583-4.54-1.816-6.797.674-.234 2.257-1.142 2.957-.908.234 0 .441.233.441.233.208 1.142-2.075 1.142-2.516 1.35zM105.935 4.83c.441.234.233.908 0 1.142-.441 2.05-.908 4.073-1.583 6.122-.233.675-.441 2.491-1.349 2.05-.441-.675.234-1.349.441-2.257.441-1.35.908-3.165 1.35-4.774.232-.934.466-1.842 1.14-2.283zM109.774 6.854c-.233 1.582-1.141 2.957-1.582 4.306-.233.675-.233 1.35-.441 2.05-.234.44-.441 1.816-.908 1.816-.908 0-.234-1.582 0-2.05.674-2.257 1.582-4.307 2.257-6.356 0 0-.908-.441-1.141-.441-.234 0-.234-.234-.442-.234 0 0-.233-.674 0-.674.675 0 1.35.233 2.491.674.675.234 1.583.442 1.583.908.233 1.142-1.35.234-1.817 0zM43.564 12.536c.234.233.234.674.442.908.233.44.44 1.141-.234 1.141-.675.234-.675-.908-.908-1.583-.233-.674-.908-1.816-.908-2.49-.675.233-1.142.441-1.816.441l.674 2.05c.234.44.234.674.442 1.141 0 .441.44 1.142-.234 1.142-.441 0-.675-.675-.675-1.142-.233-.908-.908-2.05-1.141-3.165-.441-1.142-.675-2.257-.908-3.399 0-.233-.441-.908-.234-1.141.234-.675.908.44.908.674.234.234.234.675.234.908.233.675.674 1.35.674 2.05.675 0 1.35-.441 2.05-.675-.234-.907-.441-1.349-.675-2.49-.233-.675-.674-1.816 0-1.816.441 0 .675.908.675 1.141.233.441.233 1.142.44 1.583.234.675.442 1.582.676 2.257.233.441.233.675.44 1.141-.155.857-.155 1.09.078 1.324zM112.499 7.087c.233 0 .233 0 0 0 .233.441 0 1.142.233 1.35 0 .907 0 1.582.233 2.49.441-.441 1.35-.908 2.05-1.35.233-.233.441-.674.674-.908.234-.233.675-.44.908-.233.234.44-.44 1.142-.674 1.349-.908.908-2.257 1.816-3.165 2.958a29.065 29.065 0 0 1-1.142 3.398c-.233.441-.233 1.35-1.142.908 0-1.141.675-2.49 1.142-3.632.233-.908.441-1.583.441-3.165 0-.441-.233-1.142-.233-1.583 0-.441 0-1.141.233-1.349.234-.466.442-.466.442-.233zM35.159 8.462c.674 1.583 1.582 4.073 2.49 6.123.234.674 1.142 2.05.234 2.257-.675.234-.909-1.141-1.142-1.816-.908-2.05-1.582-4.073-2.257-6.122-.675.233-1.142.674-1.816.44-.234-.674.908-.907 1.582-1.349.675-.233 1.583-.908 2.05-.908.234 0 .674 0 .674.442-.233.466-1.348.466-1.815.933zM67.381 34.536h4.074c0 .441.233.908 0 1.35-.234.233-.908 0-1.35 0v8.172c-.233.233-1.141.233-1.349 0v-8.38h-1.582c-.026 0-.26-.908.207-1.142zM75.761 34.77v9.521c-.233.234-.907 0-1.348 0-.234-1.141 0-2.957 0-4.307-.234-.233-.675 0-.908 0 0 1.35.233 3.166 0 4.307-.442 0-1.142.234-1.35-.233-.233-2.957 0-6.357.234-9.288.44-.234.908 0 1.349 0v3.632c.233.234.675 0 .908 0 0-1.141-.233-2.724 0-3.866.207.234.674.234 1.115.234zM80.535 34.977c0 .234.233.908 0 1.142-.441.233-1.142 0-1.582 0-.234.675 0 1.816 0 2.49h1.582c0 .234.233.909 0 1.142-.233.234-.908 0-1.349.234-.233.908 0 1.816 0 2.724h1.582c0 .233.234.674 0 1.142-1.141.233-2.05.233-3.165 0 0-2.05-.233-4.074-.233-6.123 0-.908-.233-2.05.233-2.958.415 0 2.024 0 2.932.207zM77.11 76.955c1.142-.233 1.583.675 1.817 1.583.233 1.349 0 2.724 0 3.865v1.142c0 .675.233 1.35-.234 2.05-.44.44-1.141.908-1.816.908-.441 0-1.349-.234-1.582-.442-.675-.674-.441-5.214-.441-6.797.466-1.167.907-2.075 2.256-2.309zm.701 1.583c0-.234-.233-.234-.233-.234-.441-.233-.675 0-.908.441-.234.675 0 2.491 0 3.633v1.349c0 .674 0 1.142.233 1.816 0 .233.234.233.441.233.675 0 .675-.44.675-.907.233-.442.233-1.142.233-1.817v-2.957-.908c-.441-.416-.441-.65-.441-.65zM73.712 80.821c-.442 0-.908 0-1.142-.233-.233-.234-.233-.675-.233-.909 0-.44.233-1.141-.442-1.348-.674-.234-.907.674-.907 1.141v3.399c0 .908-.234 2.257.44 2.49 1.35.442.675-1.582 1.142-2.49h1.142c.233 1.142.233 2.957-.442 3.398-.907.908-2.957.442-3.398-.44-.234-.234-.234-.675-.234-1.142-.233-2.05.234-4.982.234-6.59.44-1.142 1.582-1.35 2.724-1.142.233 0 .441.234.674.441.234.234.442.441.442.675v.908c.233.026 0 1.842 0 1.842zM42.423 80.12c-.234 0-.908.234-.908 0-.234-.44.233-1.349-.234-1.582-1.349-.675-1.349 1.141-.675 2.05.675.908 2.05 2.05 2.05 3.632 0 1.141-.233 2.724-1.816 2.724-1.816 0-1.816-2.05-1.583-3.399.234 0 .675-.233 1.142 0 .233.675-.234 2.05.675 2.05.44-.234.44-1.142.44-1.582 0-.234-.233-.675-.44-.908-.442-.908-1.583-1.817-1.817-2.491-.233-.908 0-2.257.442-2.724.44-.441 1.815-.675 2.724-.441.233.18.233 1.763 0 2.671zM44.913 77.396c.234.908 0 2.05 0 3.4 0 1.348-.233 2.723 0 3.631 0 .675.441 1.583 1.35 1.142.44-1.142.233-2.49.233-4.073v-4.073c.234-.234.908-.234 1.142 0v4.98c0 1.143.233 2.492-.234 3.633-.441 1.142-2.49 1.35-3.399.441-.233-.44-.44-1.348-.674-2.257v-3.632c0-1.142-.234-2.958.44-3.165.468-.234.909-.234 1.142-.027zM63.049 77.396c.44.908.674 2.05 1.141 2.958.441-.908.908-1.816 1.141-2.958.234 0 .909-.233 1.142 0 0 .675-.441 1.583-.674 2.258-.234.674-.909 1.582-.909 2.257-.233 1.582.441 3.165 0 4.774H63.75v-3.866-.908c0-.441-.441-.908-.441-1.142-.234-.441-.234-.908-.442-1.349-.233-.674-.674-1.141-.44-2.05-.285-.181.182.026.623.026zM84.842 77.189h1.816c.908 0 1.35.233 1.582 1.141.234.675.234 1.583.234 2.491 0 .233-.234.675-.441 1.142.44.233.233.908.44 1.816 0 1.141.442 2.724-.674 3.165-.674.233-2.05 0-2.957 0a68.092 68.092 0 0 1 0-9.755c0 .207 0 0 0 0zm1.35 1.115v2.958h.674c.233 0 .44-.234.44-.675 0-.674.234-1.582-.233-2.05-.415 0-.649-.233-.882-.233zm1.14 4.307s0-.233-.233-.233-.908-.441-.908 0v2.957c.233.234.908 0 1.142 0v-1.582c0-.234.233-.675 0-1.142zM93.689 82.17c.674.441 0 3.399.674 4.54-.44.234-1.141 0-1.582.234-.441-1.142.233-3.165-.233-4.307h-.675c-.233 1.142 0 2.724 0 4.073H90.29c0-2.958-.234-6.356.233-9.08 1.349-.234 3.632-.442 3.866.907-.027.909-.26 2.959-.701 3.633zm-2.05-3.632v2.957c.234 0 .908 0 .908-.233v-.675-.674-.908-.675c0-.026-.674.208-.908.208zM105.701 86.71c-.234-.674-.234-1.582-.234-2.257 0-2.257 0-4.981.234-7.03 1.142-.234 2.724-.234 3.165.44.234.234.234.908.234 1.142v6.797c-.234 1.35-2.257 1.142-3.399.908zm1.142-8.172v6.797h1.141c-.233-2.05.234-4.774-.233-6.59 0-.207-.675.026-.908-.207zM55.577 82.403c-.234 1.35 0 2.958-.234 4.307-.233.234-.908.234-1.141 0-.234-2.724-.234-6.356 0-9.08.44 0 2.724-.441 3.165 0 .233.233.44.908.44.908.234.908.234 3.165-.44 3.632-.441.441-1.116.233-1.79.233zm.908-3.632h-1.142v2.258c.675 0 .908 0 1.35-.234.025-.675.233-1.583-.208-2.024zM60.35 77.396c.234 2.258 0 5.215.234 7.706.44 0 1.582-.233 2.05.233v1.35c-.908 0-2.491.233-3.166-.234 0-2.958-.233-6.357.234-9.08-.052.025.415.025.648.025zM97.321 77.396c.233 0 .233 1.35.233 1.583 0 .674.234 1.582.441 2.257.234.675.442 1.35.442 2.05.233.674.233 1.349.233 1.816 0 .441.441 1.142.233 1.582-.44 0-.908 0-1.141-.233 0-.675-.234-1.35-.234-1.816-.233-.234-.908 0-1.349 0 0 .674 0 1.582-.44 2.05h-1.143c.234-2.958.675-6.357 1.35-9.289 0 0 0-.233.233-.233.441.233.675.233 1.142.233zm-.908 5.916h.908c0-.908-.233-1.816-.441-2.724-.26.908-.26 1.815-.467 2.724zM104.118 77.63v4.773c0 1.583.234 3.4-.233 4.54-.233 0-.908 0-1.349-.233-.233-1.582-.908-3.398-1.35-4.981-.232 1.582.234 3.399 0 5.215-.44.233-1.14 0-1.348-.234-.233-2.724 0-6.356 0-9.08h1.349c.675 1.349 1.349 2.957 1.583 4.773.233-1.349-.234-3.398.233-4.773.207-.234.44-.234 1.115 0zM49.454 77.396c1.141.234 2.05-.44 2.957.234.441.233.909 3.866.441 4.54-.44.674-1.349.441-2.05.441-.233 1.142 0 2.958-.233 4.073-.233 0-.908 0-1.141-.233a62.146 62.146 0 0 1 .026-9.055c0 .234 0 0 0 0zm1.141 3.632c.441 0 .908 0 1.142-.233 0-.675 0-1.349-.234-2.05-.233-.233-.674-.233-1.141-.233.233.934.233 1.842.233 2.516zM81.21 84.894c0 .675.233 1.582-.234 1.816-.467.234-.908 0-1.141-.233V84.66c.466-.234.907 0 1.375.233zM78.018 94.65c.442-1.142-.674-1.583-1.349-2.05-5.89-.675-4.773 6.797-.44 7.03 1.816 0 3.865-.907 5.681-1.582.441-.233 1.35-.441 1.816 0 .441.675-.44 1.35-.233 1.582 1.349.442 2.958-1.582 4.307-1.348.674 0 1.582.908.908 1.816h44.91c.674 0 2.49-.233 2.723.233.234.908-2.257.441-2.957.441H10.667c-.674 0-3.165.234-2.957-.44 0-.442 2.05-.234 2.49-.234H54.67c0-.441-.674-.908-.234-1.583 2.258-.674 3.633 1.142 5.449 1.142.44-.675-1.142-.908-.675-1.816.441-.908 2.724.908 3.399 1.141 1.349.442 3.398.908 4.981.442 2.05-.442 3.399-2.958 2.49-4.982-.233-.674-1.14-1.582-2.256-1.816-1.35 0-2.958.675-2.725 2.257 1.142 0 1.142-1.141 2.258-1.141 2.05 0 2.05 2.957.233 3.632-2.257.674-3.865-1.582-3.399-3.399.441-1.349 2.725-2.49 4.54-1.816.908.234 1.583 1.142 1.817 1.816 1.141 2.491-.675 4.54-2.258 6.357 1.583-.234 3.399 0 5.215 0-.908-1.583-2.724-4.307-1.349-6.59.441-.908 1.583-1.583 2.958-1.816.907 0 2.49 0 3.165.674 1.816 1.816 0 5.215-2.258 4.774-1.816-.234-2.257-3.632 0-3.632.883.233 1.324.674 1.998.907zM90.056 105.753a406.93 406.93 0 0 0 2.05 9.08h-2.49c-.234-.44-.234-1.14-.234-1.582-.233-.233-.908 0-1.349 0-.234.442-.234 1.142-.441 1.817-.441 0-1.816 0-2.258-.234.675-3.165 1.142-6.123 2.05-9.08.857 0 2.206-.208 2.672 0zm-1.582 5.682h.441c0-.44 0-1.141-.233-1.349 0 .441-.208.674-.208 1.35zM83.934 105.987c0 2.957.233 6.59 0 9.08-.675 0-1.35 0-1.816-.233-.234-1.349 0-2.724 0-4.073-.441 1.349-.908 2.957-1.35 4.073-.44.233-1.141 0-1.816 0-.674-1.142-.907-2.49-1.141-3.633-.234 1.142 0 2.725-.234 3.4-.44.233-1.349.233-1.816 0 0-2.725-.233-6.357 0-8.848.675-.233 1.816 0 2.49 0 .675 1.35.909 3.399 1.583 4.774.675-1.35.908-3.165 1.583-4.774.7 0 1.609 0 2.517.234zM41.956 105.987v1.816h-1.35c-.44 2.49 0 4.54-.233 7.03h-2.257c-.233-2.049 0-4.773 0-7.03-.441-.234-.908 0-1.816-.234-.233-.44 0-1.141 0-1.582h5.656zM58.067 105.987c1.142.233 2.958-.234 3.866 0 2.49.908 1.141 4.54 1.582 7.705-.44 1.816-3.865 1.35-5.682 1.142 0-2.724 0-5.89.234-8.847-.233 0 0 0 0 0zm1.816 1.816v5.448c.234 0 1.142 0 1.35-.233.44-1.35.44-4.073 0-5.215h-1.35zM106.843 105.987c-.441 1.582-1.35 2.724-2.05 4.073.674 2.05 2.05 2.958 2.958 4.774-1.142 0-2.05.233-3.166 0-.44-.675-1.141-1.583-1.582-2.258-.233.675 0 1.817-.233 2.258h-2.258c-.233-2.724-.233-6.123 0-9.081h2.258c.233.675 0 1.583 0 2.257.44-.908.907-1.582 1.582-2.49.908.467 1.816.467 2.49.467zM47.871 110.06c1.35.675.441 3.399 1.35 4.54-.675.234-2.05.234-2.725 0-.675-.907.441-3.865-1.142-3.865-.233 1.141 0 2.724-.233 3.866-.441 0-1.35.233-2.05 0-.233-2.725 0-6.123 0-8.614 1.583 0 4.307-.674 4.982.908.726.908.493 2.724-.182 3.165zm-2.516-.675c.44 0 .674 0 .908-.233 0-.441 0-.908-.234-1.349-.233-.234-.674 0-.908-.234.234.675.234 1.142.234 1.816zM97.996 110.06c1.349.675.44 3.399 1.349 4.54-.675.234-2.05.234-2.725 0-.674-.907.442-3.865-1.141-3.865-.233 1.141 0 2.724-.233 3.866-.441 0-1.35.233-2.05 0-.233-2.725 0-6.123 0-8.614 1.582 0 4.307-.674 4.981.908.727.908.493 2.724-.181 3.165zm-2.491-.675c.441 0 .675 0 .908-.233 0-.441 0-.908-.233-1.349-.234-.234-.675 0-.908-.234.233.675.233 1.142.233 1.816zM54.435 105.987c.675 1.142.675 2.724 1.142 4.307.233 1.582.908 2.957 1.141 4.307-.441.233-1.35 0-2.257 0-.234-.675-.441-1.35-.675-2.05-.233-.234-.674 0-1.141 0-.234.674-.441 1.349-.234 2.05h-2.49c.44-2.725 1.14-5.89 2.05-8.614.648.233 1.556 0 2.464 0zm-1.583 4.981h.441c-.233-.44-.233-.908-.233-1.349.026.441.026.908-.208 1.35zM136.108 119.14c0 1.142-1.583.675-2.724.675h-10.196c-3.633 0-7.265-.233-11.105 0-7.03.233-20.651-.233-29.94 0 0 .441.442.908.234 1.35-.441 1.14-2.49.233-3.399-.234-.44 1.816-1.816.233-2.957-.234-.675-.233-1.583-.674-2.49-.44-.909.233-1.583 2.049-.909 2.957.441.674 2.05 1.141 2.49-.234-.44-.233-.907.675-1.582.234-.907-.675 0-1.583.442-1.583.674-.233 1.816.234 1.816.908.674 2.258-2.724 2.724-3.633 1.583-1.141-1.142-.233-3.399.908-4.307h-2.957c.233.908 1.141 1.349 1.141 2.257.234 1.816-1.349 2.958-2.957 2.724-1.142-.233-1.583-1.816-.908-2.724.674-.674 2.724-.674 2.49.675-.233 1.141-1.349.44-2.05.674.441 1.142 2.491.441 2.491-.674.234-.908-.675-2.05-1.349-2.258-1.816-.44-2.958 2.258-4.54 1.35-.234-.234-.441-.442-.441-.909-.675.908-4.073.908-2.724-1.141H10.226c-.674 0-2.957.233-3.165-.234-.234-.674 1.583-.44 2.257-.44 6.798-.442 13.829 0 20.419 0H133.617c1.116-.208 2.024-.415 2.49.026zM69.872 105.987c.234.441.234 1.582 0 2.05-.44 0-1.35.233-2.257 0v1.348c.674 0 1.582-.233 2.257 0 .234.442.234 1.35 0 1.816-.675.234-1.35.234-2.257.234-.234.441 0 1.142 0 1.583h2.257c.234.44.234 1.348 0 1.816-1.142.233-2.958 0-4.307.233-.233-2.724-.233-6.356 0-9.08 1.35-.234 3.165-.234 4.307 0z"/>
    </g>
</svg>
